<?xml version="1.0" encoding="UTF-8" standalone="no"?>
<!DOCTYPE svg PUBLIC "-//W3C//DTD SVG 1.1//EN"
 "http://www.w3.org/Graphics/SVG/1.1/DTD/svg11.dtd">
<!-- Generated by graphviz version 2.47.1 (0)
 -->
<!-- Pages: 1 -->
<svg width="205pt" height="306pt"
 viewBox="0.00 0.00 205.00 306.00" xmlns="http://www.w3.org/2000/svg" xmlns:xlink="http://www.w3.org/1999/xlink">
<g id="graph0" class="graph" transform="scale(1 1) rotate(0) translate(4 302)">
<polygon fill="white" stroke="transparent" points="-4,4 -4,-302 201,-302 201,4 -4,4"/>
<!-- Buy -->
<g id="node1" class="node">
<title>Buy</title>
<polygon fill="none" stroke="black" points="114,-298 60,-298 60,-262 114,-262 114,-298"/>
<text text-anchor="middle" x="87" y="-276.3" font-family="Times,serif" font-size="14.00">Buy</text>
</g>
<!-- Shop -->
<g id="node3" class="node">
<title>Shop</title>
<ellipse fill="none" stroke="black" cx="87" cy="-207" rx="34.39" ry="18"/>
<text text-anchor="middle" x="87" y="-203.3" font-family="Times,serif" font-size="14.00">Shop</text>
</g>
<!-- Buy&#45;&gt;Shop -->
<g id="edge1" class="edge">
<title>Buy&#45;&gt;Shop</title>
<path fill="none" stroke="black" d="M87,-261.81C87,-253.79 87,-244.05 87,-235.07"/>
<polygon fill="black" stroke="black" points="90.5,-235.03 87,-225.03 83.5,-235.03 90.5,-235.03"/>
</g>
<!-- Redis -->
<g id="node2" class="node">
<title>Redis</title>
<path fill="none" stroke="black" d="M67,-119.73C67,-121.53 54.45,-123 39,-123 23.55,-123 11,-121.53 11,-119.73 11,-119.73 11,-90.27 11,-90.27 11,-88.47 23.55,-87 39,-87 54.45,-87 67,-88.47 67,-90.27 67,-90.27 67,-119.73 67,-119.73"/>
<path fill="none" stroke="black" d="M67,-119.73C67,-117.92 54.45,-116.45 39,-116.45 23.55,-116.45 11,-117.92 11,-119.73"/>
<text text-anchor="middle" x="39" y="-101.3" font-family="Times,serif" font-size="14.00">Redis</text>
</g>
<!-- Battle -->
<g id="node5" class="node">
<title>Battle</title>
<ellipse fill="none" stroke="black" cx="39" cy="-18" rx="38.99" ry="18"/>
<text text-anchor="middle" x="39" y="-14.3" font-family="Times,serif" font-size="14.00">Battle</text>
</g>
<!-- Redis&#45;&gt;Battle -->
<g id="edge4" class="edge">
<title>Redis&#45;&gt;Battle</title>
<path fill="none" stroke="black" d="M39,-86.8C39,-75.16 39,-59.55 39,-46.24"/>
<polygon fill="black" stroke="black" points="42.5,-46.18 39,-36.18 35.5,-46.18 42.5,-46.18"/>
<text text-anchor="middle" x="71" y="-57.8" font-family="Times,serif" font-size="14.00">Message</text>
</g>
<!-- Shop&#45;&gt;Redis -->
<g id="edge3" class="edge">
<title>Shop&#45;&gt;Redis</title>
<path fill="none" stroke="black" d="M62.23,-194.23C53.2,-188.57 44,-180.84 39,-171 33.18,-159.56 32.53,-145.46 33.61,-133.32"/>
<polygon fill="black" stroke="black" points="37.09,-133.64 34.91,-123.27 30.15,-132.74 37.09,-133.64"/>
<text text-anchor="middle" x="73" y="-159.8" font-family="Times,serif" font-size="14.00">Message </text>
<text text-anchor="middle" x="73" y="-144.8" font-family="Times,serif" font-size="14.00"> (Async)</text>
</g>
<!-- Account -->
<g id="node4" class="node">
<title>Account</title>
<ellipse fill="none" stroke="black" cx="133" cy="-105" rx="48.19" ry="18"/>
<text text-anchor="middle" x="133" y="-101.3" font-family="Times,serif" font-size="14.00">Account</text>
</g>
<!-- Shop&#45;&gt;Account -->
<g id="edge2" class="edge">
<title>Shop&#45;&gt;Account</title>
<path fill="none" stroke="black" d="M99.45,-189.84C103.49,-184.1 107.77,-177.46 111,-171 117.01,-158.97 122,-144.9 125.7,-132.94"/>
<polygon fill="black" stroke="black" points="129.14,-133.65 128.61,-123.07 122.42,-131.67 129.14,-133.65"/>
<text text-anchor="middle" x="159.5" y="-159.8" font-family="Times,serif" font-size="14.00">HTTP API </text>
<text text-anchor="middle" x="159.5" y="-144.8" font-family="Times,serif" font-size="14.00"> (Sync)</text>
</g>
</g>
</svg>
